<svg width="12" height="18" viewBox="0 0 12 18" fill="none" xmlns="http://www.w3.org/2000/svg">
<path d="M12 12.1245C12 9.47775 9.40885 8.403 6.85714 7.43325V3.9435C8.07428 3.9825 9.3 4.28325 10.4229 4.629L11.0443 2.15775C9.48942 1.7445 8.09742 1.5555 6.85714 1.527V0H5.14285V1.6005C1.80771 2.00175 0.0265715 3.83175 0.0265715 5.8755C0.0265715 8.76825 3.07628 9.72 5.14285 10.3148V13.8488C3.68057 13.8345 2.064 13.3837 0.779142 12.9473L0 15.4132C1.53171 16.1055 3.36943 16.476 5.14285 16.503V18H6.85714V16.4212C9.696 16.0732 12.0043 14.7015 12 12.1245ZM5.14285 4.14225V6.75375C3.762 6.063 3.70457 4.6755 5.14285 4.14225ZM6.85714 13.593V10.8997C8.43514 11.6985 8.23285 13.0478 6.85714 13.593Z" fill="#1D1D1F" fill-opacity="0.8"/>
</svg>
